<svg width="17" height="13" viewBox="0 0 17 13" fill="none" xmlns="http://www.w3.org/2000/svg">
<path d="M13.3886 3.2844C13.2905 4.6461 12.2803 5.69508 11.1788 5.69508C10.0772 5.69508 9.0654 4.64643 8.96897 3.2844C8.86853 1.86779 9.85188 0.873718 11.1788 0.873718C12.5056 0.873718 13.489 1.89357 13.3886 3.2844Z" stroke="#F4F6F8" stroke-linecap="round" stroke-linejoin="round"/>
<path d="M11.1788 7.83789C8.99677 7.83789 6.89848 8.92169 6.37281 11.0324C6.30317 11.3116 6.47828 11.5878 6.76522 11.5878H15.5927C15.8796 11.5878 16.0537 11.3116 15.9851 11.0324C15.4594 8.88788 13.3611 7.83789 11.1788 7.83789Z" stroke="#F4F6F8" stroke-miterlimit="10"/>
<path d="M6.62528 3.88506C6.54694 4.97254 5.73066 5.829 4.85076 5.829C3.97086 5.829 3.15324 4.97288 3.07623 3.88506C2.99621 2.75371 3.79073 1.94513 4.85076 1.94513C5.91079 1.94513 6.70531 2.77447 6.62528 3.88506Z" stroke="#F4F6F8" stroke-linecap="round" stroke-linejoin="round"/>
<path d="M6.82614 7.90491C6.22179 7.62802 5.55618 7.52155 4.85072 7.52155C3.10967 7.52155 1.43224 8.38705 1.01205 10.0728C0.956801 10.2958 1.09675 10.5165 1.32577 10.5165H5.08509" stroke="#F4F6F8" stroke-miterlimit="10" stroke-linecap="round"/>
</svg>
